<?xml version="1.0" standalone="no"?>
<!DOCTYPE svg PUBLIC "-//W3C//DTD SVG 20010904//EN"
 "http://www.w3.org/TR/2001/REC-SVG-20010904/DTD/svg10.dtd">
<svg version="1.0" xmlns="http://www.w3.org/2000/svg"
 width="288.000000pt" height="288.000000pt" viewBox="0 0 288.000000 288.000000"
 preserveAspectRatio="xMidYMid meet">
<metadata>
Created by potrace 1.14, written by Peter Selinger 2001-2017
</metadata>
<g transform="translate(0.000000,288.000000) scale(0.100000,-0.100000)"
fill="#000000" stroke="none">
<path d="M1360 2877 c-3 -3 -36 -8 -74 -12 -37 -4 -112 -18 -165 -32 -53 -14
-111 -27 -128 -30 -18 -3 -33 -8 -33 -12 0 -4 -17 -13 -37 -20 l-37 -14 28
-14 c37 -20 25 -29 -13 -10 -25 12 -36 13 -65 3 -20 -7 -39 -15 -42 -19 -7 -6
35 5 69 18 13 5 17 2 17 -13 0 -16 -8 -20 -51 -24 -28 -3 -55 -11 -59 -18 -4
-7 -16 -9 -29 -5 -12 3 -21 2 -21 -4 0 -14 36 -24 60 -16 11 4 20 2 20 -4 0
-6 -19 -11 -43 -11 -33 0 -49 -6 -63 -22 l-19 -23 23 19 c12 11 22 14 22 8 0
-7 7 -12 15 -12 8 0 20 -10 26 -22 7 -13 18 -27 25 -31 8 -4 14 -12 14 -17 0
-13 42 -55 64 -63 11 -4 16 -13 12 -22 -3 -9 0 -15 9 -15 8 0 15 -4 15 -9 0
-5 12 -23 26 -40 l26 -31 391 0 c425 0 478 -5 600 -56 139 -59 235 -143 288
-250 44 -89 46 -187 6 -285 l-27 -66 24 -54 c62 -142 31 -291 -86 -407 l-52
-52 269 -270 270 -271 21 27 c26 32 105 188 134 264 62 166 96 381 87 564 -13
276 -94 519 -251 751 -73 109 -253 291 -356 362 -166 113 -362 195 -554 232
-102 20 -346 39 -356 28z m-100 -47 c20 -6 21 -8 5 -8 -11 0 -31 4 -45 8 -20
6 -21 8 -5 8 11 0 31 -4 45 -8z m-300 -80 c0 -5 -4 -10 -10 -10 -5 0 -10 5
-10 10 0 6 5 10 10 10 6 0 10 -4 10 -10z"/>
<path d="M605 2573 c-19 -15 -19 -15 8 -9 20 5 27 3 27 -8 0 -11 -6 -13 -17
-9 -17 7 -17 6 0 -11 23 -23 22 -56 -1 -56 -10 0 -22 3 -26 7 -13 13 -36 11
-36 -3 0 -12 -4 -12 -20 -4 -26 14 -26 0 1 -29 12 -12 18 -25 14 -29 -3 -3 -9
-2 -13 3 -13 18 -42 37 -42 28 0 -16 201 -218 214 -215 6 2 8 0 4 -4 -5 -4 40
-57 100 -118 214 -221 1646 -1656 1652 -1655 5 0 101 112 125 146 15 21 -60
97 -1676 1706 -65 64 -122 117 -128 117 -5 0 -12 -6 -14 -12 -4 -9 -12 -5 -26
12 -14 18 -16 27 -8 32 9 6 9 10 -1 17 -8 4 -14 12 -13 17 0 5 -14 8 -32 6
-24 -2 -29 0 -20 9 9 9 8 18 -5 38 -28 44 -38 48 -67 24z m60 -43 c-3 -5 -10
-10 -16 -10 -5 0 -9 5 -9 10 0 6 7 10 16 10 8 0 12 -4 9 -10z m-59 -145 c13
-13 13 -15 1 -15 -8 0 -20 7 -27 15 -9 11 -10 15 -1 15 7 0 19 -7 27 -15z m69
-75 c3 -5 1 -10 -4 -10 -6 0 -11 5 -11 10 0 6 2 10 4 10 3 0 8 -4 11 -10z"/>
<path d="M770 2535 c-11 -13 -10 -14 4 -9 9 3 16 10 16 15 0 13 -6 11 -20 -6z"/>
<path d="M527 2517 l-28 -22 25 -1 c15 -1 23 2 20 8 -4 6 0 14 7 19 7 4 11 10
8 13 -2 3 -17 -5 -32 -17z"/>
<path d="M475 2481 c-3 -5 -1 -12 5 -16 5 -3 10 1 10 9 0 18 -6 21 -15 7z"/>
<path d="M850 2459 c0 -5 -4 -7 -10 -4 -16 10 -11 -1 7 -16 11 -10 14 -10 9
-1 -4 6 -2 12 3 12 6 0 11 5 11 10 0 6 -4 10 -10 10 -5 0 -10 -5 -10 -11z"/>
<path d="M752 2449 c2 -7 10 -15 17 -17 8 -3 12 1 9 9 -2 7 -10 15 -17 17 -8
3 -12 -1 -9 -9z"/>
<path d="M415 2410 c-3 -5 -2 -10 4 -10 5 0 13 5 16 10 3 6 2 10 -4 10 -5 0
-13 -4 -16 -10z"/>
<path d="M390 2388 c0 -6 -10 -22 -22 -35 -12 -13 -18 -26 -14 -30 10 -11 46
35 46 58 0 10 -2 19 -5 19 -3 0 -5 -5 -5 -12z"/>
<path d="M910 2375 c13 -14 26 -25 28 -25 3 0 -5 11 -18 25 -13 14 -26 25 -28
25 -3 0 5 -11 18 -25z"/>
<path d="M480 2374 c0 -5 7 -20 16 -32 14 -20 14 -22 0 -22 -12 0 -16 -10 -16
-40 0 -38 -1 -40 -31 -40 -28 0 -31 2 -25 24 7 27 -5 35 -40 28 -21 -4 -41
-51 -23 -53 5 -1 13 -2 18 -3 19 -2 23 -16 6 -22 -10 -4 -21 -1 -26 7 -5 9 -9
10 -9 2 0 -6 29 -41 65 -76 36 -36 65 -70 65 -76 0 -6 3 -10 8 -8 4 1 7 0 7
-3 2 -14 40 -48 48 -43 6 3 7 2 4 -3 -3 -5 383 -398 857 -873 l863 -863 59 48
c32 26 74 62 92 79 l33 31 -869 865 c-963 957 -1102 1093 -1102 1073z m-7
-240 c-4 -10 -9 -12 -15 -6 -12 12 -1 35 12 27 5 -3 6 -13 3 -21z m73 -82 c-4
-3 -14 2 -24 12 -16 18 -16 18 6 6 13 -6 21 -14 18 -18z"/>
<path d="M420 2355 c0 -8 4 -15 10 -15 5 0 7 7 4 15 -4 8 -8 15 -10 15 -2 0
-4 -7 -4 -15z"/>
<path d="M1064 2221 c52 -52 84 -78 95 -74 11 3 12 2 4 -4 -9 -6 51 -72 202
-223 129 -129 215 -208 215 -197 0 16 21 17 288 17 l289 0 23 51 c34 71 32
163 -5 241 -47 103 -180 198 -340 244 -52 15 -115 18 -455 21 l-395 3 79 -79z
m46 -21 c0 -5 -2 -10 -4 -10 -3 0 -8 5 -11 10 -3 6 -1 10 4 10 6 0 11 -4 11
-10z"/>
<path d="M317 2239 c7 -7 15 -10 18 -7 3 3 -2 9 -12 12 -14 6 -15 5 -6 -5z"/>
<path d="M257 2206 c-4 -10 -1 -13 9 -9 7 3 14 9 14 14 0 14 -17 10 -23 -5z"/>
<path d="M296 2182 c-3 -5 1 -9 9 -9 8 0 15 4 15 9 0 4 -4 8 -9 8 -6 0 -12 -4
-15 -8z"/>
<path d="M226 2165 c-9 -7 -13 -16 -8 -19 6 -3 12 0 15 8 4 9 14 12 29 9 13
-3 19 -2 15 2 -12 14 -32 14 -51 0z"/>
<path d="M325 2149 c-5 -7 -4 -10 2 -6 11 7 37 -42 28 -52 -4 -3 -13 3 -21 13
-14 19 -14 19 -14 -2 0 -19 -6 -22 -40 -22 -33 0 -40 -3 -40 -19 0 -16 -8 -20
-37 -23 -27 -2 -39 -8 -41 -20 -2 -11 3 -18 13 -18 9 0 14 -4 11 -9 -7 -11 38
-53 47 -44 4 3 7 -1 7 -10 0 -11 8 -17 23 -17 28 0 54 -16 43 -27 -5 -4 -11
-2 -13 5 -3 6 -12 12 -21 12 -8 0 384 -400 872 -889 l888 -888 41 22 c23 12
72 40 109 62 l68 39 -821 820 c-451 450 -848 847 -882 882 -56 57 -89 80 -71
50 4 -8 3 -10 -2 -5 -5 5 -9 12 -9 16 0 9 -42 61 -50 61 -3 0 -4 -4 0 -9 3 -5
1 -12 -4 -16 -6 -3 -8 3 -6 13 5 25 -69 100 -80 81z m113 -127 c6 -18 -15 -14
-22 4 -4 10 -1 14 6 12 6 -2 14 -10 16 -16z m-206 -29 c-10 -4 -10 -8 -1 -19
7 -8 7 -14 1 -14 -5 0 -15 6 -21 14 -12 14 -2 24 24 24 6 0 4 -2 -3 -5z m279
-50 c13 -16 12 -17 -3 -4 -10 7 -18 15 -18 17 0 8 8 3 21 -13z"/>
<path d="M186 2104 c-9 -22 -8 -23 13 -21 12 1 17 7 13 19 -5 22 -18 23 -26 2z"/>
<path d="M124 1955 c-8 -21 6 -41 17 -24 12 19 11 39 -1 39 -6 0 -13 -7 -16
-15z"/>
<path d="M162 1932 c4 -12 2 -20 -3 -16 -5 3 -9 -13 -9 -35 0 -30 -4 -41 -15
-41 -11 0 -15 12 -16 43 -1 39 -1 40 -9 13 -5 -15 -15 -36 -23 -45 -18 -21
-32 -91 -17 -91 5 0 10 18 10 40 0 34 3 40 21 40 18 0 20 -4 15 -27 -4 -16 -8
-37 -10 -48 -2 -13 -10 -20 -25 -19 -26 1 -23 -17 7 -31 12 -5 23 -19 24 -30
2 -11 9 -19 16 -17 8 1 11 -2 7 -7 -3 -6 8 -17 25 -26 16 -8 30 -21 30 -29 0
-16 42 -56 58 -56 7 0 16 -8 19 -17 4 -10 77 -89 162 -175 1184 -1192 1302
-1308 1324 -1308 32 0 247 69 247 79 0 9 -1437 1441 -1447 1441 -3 0 -21 18
-40 40 -19 22 -41 40 -49 40 -8 0 -14 6 -14 13 0 16 -52 67 -68 67 -7 0 -12 6
-12 13 0 18 -39 53 -67 62 -13 3 -23 13 -23 21 0 22 -33 54 -56 54 -12 0 -28
-10 -37 -22 -8 -13 -19 -19 -23 -14 -5 4 1 15 14 23 28 19 28 44 0 69 -21 19
-21 19 -16 -4z m-2 -147 c0 -16 -6 -25 -15 -25 -16 0 -19 9 -9 34 9 25 24 19
24 -9z m100 -15 c0 -5 -4 -10 -10 -10 -5 0 -10 5 -10 10 0 6 5 10 10 10 6 0
10 -4 10 -10z m-86 -92 c16 -11 -6 -10 -23 1 -8 5 -10 14 -5 22 6 10 9 10 12
-1 3 -8 10 -18 16 -22z m66 -8 c0 -5 -2 -10 -4 -10 -3 0 -8 5 -11 10 -3 6 -1
10 4 10 6 0 11 -4 11 -10z"/>
<path d="M39 1685 c-4 -5 -3 -50 1 -100 4 -49 4 -97 -1 -105 -6 -11 -9 -7 -10
15 -1 30 -1 30 -9 -5 -11 -50 -8 -96 7 -92 7 1 13 -5 13 -13 0 -21 99 -117
113 -108 6 3 7 1 3 -5 -4 -6 1 -20 11 -30 10 -10 288 -292 617 -625 l599 -607
66 0 c81 0 243 19 254 30 5 4 2 14 -6 21 -8 8 -372 371 -809 807 -437 435
-797 792 -801 792 -4 0 -7 -9 -7 -21 0 -11 -4 -18 -9 -14 -6 3 -8 -18 -6 -52
2 -34 -1 -20 -8 32 -7 50 -15 86 -18 80z m77 -68 c1 -8 -4 -14 -10 -14 -7 0
-12 11 -12 24 0 24 18 16 22 -10z m78 -78 c-3 -5 -10 -7 -15 -3 -5 3 -7 10 -3
15 3 5 10 7 15 3 5 -3 7 -10 3 -15z m-144 -114 c0 -8 -4 -15 -10 -15 -5 0 -10
7 -10 15 0 8 5 15 10 15 6 0 10 -7 10 -15z m17 -57 c-3 -7 -5 -2 -5 12 0 14 2
19 5 13 2 -7 2 -19 0 -25z m53 -28 c0 -5 -4 -10 -10 -10 -5 0 -10 5 -10 10 0
6 5 10 10 10 6 0 10 -4 10 -10z"/>
<path d="M1835 1450 l220 -220 46 46 c99 97 131 236 80 347 l-22 47 -272 0
-272 0 220 -220z"/>
<path d="M40 1303 c0 -16 -2 -16 -11 -3 -8 11 -9 8 -4 -15 4 -16 9 -59 11 -94
3 -35 9 -72 14 -81 5 -10 14 -39 20 -66 6 -27 14 -58 19 -69 5 -11 24 -58 42
-105 18 -47 50 -113 71 -147 21 -35 38 -67 38 -72 0 -5 4 -11 8 -13 4 -1 30
-32 57 -68 240 -316 610 -524 990 -555 l80 -7 -400 397 c-220 218 -486 482
-591 586 -168 166 -221 214 -199 179 3 -5 1 -10 -5 -10 -7 0 -9 7 -6 16 6 15
-16 41 -59 74 -19 14 -19 14 -4 -5 32 -40 33 -49 2 -25 -21 16 -30 31 -27 43
3 10 -1 20 -10 23 -9 3 -16 12 -16 20 0 8 -4 14 -10 14 -5 0 -10 -8 -10 -17z
m40 -115 c0 -6 -6 -5 -15 2 -12 10 -15 10 -15 0 0 -8 -3 -11 -6 -7 -3 3 -3 10
0 16 8 12 36 3 36 -11z m135 -48 c3 -5 1 -10 -4 -10 -6 0 -11 5 -11 10 0 6 2
10 4 10 3 0 8 -4 11 -10z"/>
</g>
</svg>
